<svg width="150" height="231" viewBox="0 0 150 231" fill="none" xmlns="http://www.w3.org/2000/svg">
<path id="A" d="M88.357 216.872C88.1673 215.373 86.892 214.249 85.3807 214.249H63.9561C62.459 214.249 61.191 215.353 60.9847 216.835L59.3934 228.273C59.1871 229.756 57.9192 230.86 56.422 230.86H3.5367C1.68447 230.86 0.274758 229.198 0.576881 227.371L37.6101 3.37053C37.8495 1.92219 39.1019 0.859863 40.5699 0.859863H109.223C110.69 0.859863 111.941 1.92077 112.182 3.3679L149.419 227.368C149.723 229.196 148.313 230.86 146.46 230.86H92.7705C91.2592 230.86 89.9839 229.736 89.7942 228.236L88.357 216.872ZM70.2276 148.54C69.9742 150.345 71.3758 151.957 73.1985 151.957H76.6416C78.4468 151.957 79.8432 150.374 79.6182 148.583L76.4706 123.527L75.2101 80.4016L73.7395 123.527L70.2276 148.54Z" fill="black"/>
</svg>
