<svg width="150" height="231" viewBox="0 0 150 231" fill="none" xmlns="http://www.w3.org/2000/svg">
<path id="C" d="M74.2742 230.86C56.371 230.86 42.5807 227.487 31.4516 221.047C9.43546 207.86 0 179.647 0 133.34V95.9266C0 72.6199 2.90322 54.5266 9.43546 40.4199C21.7742 12.5132 44.7581 0.859863 74.5162 0.859863C90.9678 0.859863 104.516 3.61987 115.887 9.44653C138.145 21.0999 149.758 45.6332 149.758 89.4866V106.727C149.758 108.384 148.415 109.727 146.758 109.727H82.3549C80.698 109.727 79.3549 108.384 79.3549 106.727V84.2732C79.3549 75.6866 78.871 73.2332 75.9678 73.2332C73.7904 73.2332 72.5807 75.6866 72.5807 83.9666V145.607C72.5807 153.887 72.8226 157.26 75.9678 157.26C78.871 157.26 79.3549 153.887 79.3549 145.3V121.007C79.3549 119.35 80.698 118.007 82.3549 118.007H147C148.657 118.007 150 119.35 150 121.007V133.953C150 156.953 147.581 175.66 142.5 190.073C132.339 218.287 111.29 230.86 74.2742 230.86Z" fill="black"/>
</svg>
