<svg width="1760" height="168" viewBox="0 0 1760 168" fill="none" xmlns="http://www.w3.org/2000/svg">
<path d="M22.3878 163.271C6.93428 163.271 0 157.042 0 138.802L0 93.5348C0 92.9825 0.447715 92.5348 1 92.5348H20.3972C20.9495 92.5348 21.3972 92.9825 21.3972 93.5348L21.3972 135.466C21.3972 139.692 21.5953 139.914 22.586 139.914C23.5766 139.914 23.7747 139.692 23.7747 135.466L23.7747 97.6509C23.7747 95.9112 23.7747 94.5966 23.2193 93.4995C23.1939 93.4493 23.1719 93.3981 23.1527 93.3453C22.5146 91.5916 20.1232 89.7995 14.4629 85.4167C2.97184 76.7416 0.198122 72.0704 0 61.3933L0 22.4664C0 7.78538 8.91551 0 23.1803 0C37.247 0 45.37 7.56295 45.37 19.7971L45.37 61.0606C45.37 61.6129 44.9223 62.0606 44.37 62.0606H24.7747C24.2224 62.0606 23.7747 61.6129 23.7747 61.0606L23.7747 25.803C23.7747 22.0215 23.5766 21.7991 22.586 21.7991C21.5953 21.7991 21.3972 22.0215 21.3972 25.803L21.3972 58.0567C21.3972 59.1394 21.585 60.2222 21.7777 61.0997C21.7881 61.1471 21.8015 61.1929 21.8201 61.2377C22.4624 62.7859 25.0764 64.8187 32.8883 70.9582C42.3982 78.2987 45.37 82.7475 45.37 94.3143L45.37 138.357C45.37 157.042 37.4451 163.271 22.3878 163.271Z" fill="black"/>
<path d="M94.8198 163.271C65.2342 163.271 48.3281 151.42 48.3281 116.967L48.3281 46.3039C48.3281 14.0448 65.4566 0 95.932 0C127.742 0 141.534 13.3864 141.534 46.3039L141.534 77.9631C141.534 78.5154 141.086 78.9631 140.534 78.9631H98.0443C97.492 78.9631 97.0443 78.5154 97.0443 77.9631V46.3039C97.0443 37.9648 96.3769 37.7453 94.8198 37.7453C92.3729 37.7453 92.3729 38.4037 92.3729 46.3039L92.3729 115.43C92.3729 123.331 92.8178 123.989 94.8198 123.989C96.5994 123.989 97.0443 123.331 97.0443 115.43L97.0443 83.3581C97.0443 82.8058 97.492 82.3581 98.0443 82.3581H140.534C141.086 82.3581 141.534 82.8058 141.534 83.3581L141.534 116.967C141.534 149.884 123.961 163.271 94.8198 163.271Z" fill="black"/>
<path d="M235.213 163.271C172.71 163.271 144.492 145.055 144.492 96.8516L144.492 1C144.492 0.447715 144.94 0 145.492 0L231.179 0C231.732 0 232.179 0.447715 232.179 1V96.1852C232.179 103.071 233.393 104.182 236.124 104.182C239.461 104.182 240.068 103.071 240.068 96.1852V0.999999C240.068 0.447714 240.516 0 241.068 0L326.452 0C327.004 0 327.452 0.447715 327.452 1V96.8516C327.452 113.512 323.507 126.618 315.922 136.392C300.448 155.718 272.534 163.271 235.213 163.271Z" fill="black"/>
<path d="M332.398 163.271C331.846 163.271 331.398 162.823 331.398 162.271L331.398 0.999998C331.398 0.447714 331.846 0 332.398 0L370.964 0C371.516 0 371.964 0.447715 371.964 1V116.691C371.964 117.243 372.412 117.691 372.964 117.691L392.042 117.691C392.595 117.691 393.042 118.139 393.042 118.691L393.042 162.271C393.042 162.823 392.595 163.271 392.042 163.271H332.398Z" fill="black"/>
<path d="M422.732 113.836C422.18 113.836 421.732 114.284 421.732 114.836V162.271C421.732 162.823 421.284 163.271 420.732 163.271H397.004C396.452 163.271 396.004 162.823 396.004 162.271V0.999998C396.004 0.447714 396.452 0 397.004 0L425.509 0C443.448 0 451.237 7.93675 451.237 20.4088V90.7058C451.237 104.312 444.156 113.836 425.745 113.836H422.732ZM422.204 20.8623C421.943 20.8623 421.732 21.0737 421.732 21.3344V90.2338C421.732 90.4945 421.943 90.7058 422.204 90.7058C424.093 90.7058 424.565 90.4791 424.565 88.4382V23.13C424.565 21.5426 423.856 20.8623 422.204 20.8623Z" fill="black"/>
<path d="M516.123 42.405C515.571 42.405 515.123 42.8527 515.123 43.405V162.271C515.123 162.823 514.676 163.271 514.123 163.271H471.692C471.14 163.271 470.692 162.823 470.692 162.271V43.405C470.692 42.8527 470.244 42.405 469.692 42.405H455.195C454.643 42.405 454.195 41.9573 454.195 41.405V0.999998C454.195 0.447714 454.643 0 455.195 0L530.62 0C531.173 0 531.62 0.447715 531.62 1V41.405C531.62 41.9573 531.173 42.405 530.62 42.405L516.123 42.405Z" fill="black"/>
<path d="M536.055 0.999998C536.055 0.447714 536.502 0 537.055 0L562.178 0C562.73 0 563.178 0.447715 563.178 1V162.271C563.178 162.823 562.73 163.271 562.178 163.271H537.055C536.502 163.271 536.055 162.823 536.055 162.271V0.999998Z" fill="black"/>
<path d="M620.976 162.271C620.976 162.823 620.528 163.271 619.976 163.271H568.621C568.069 163.271 567.621 162.823 567.621 162.271V0.999998C567.621 0.447714 568.069 0 568.621 0L631.338 0C631.811 0 632.204 0.258284 632.301 0.721331C634.299 10.233 655.409 110.612 656.453 110.434C657.536 110.25 644.205 33.8225 643.888 32.0067C643.878 31.9499 643.882 31.9448 643.882 31.8872V0.999999C643.882 0.447714 644.33 0 644.882 0L694.841 0C695.393 0 695.841 0.447715 695.841 1V162.271C695.841 162.823 695.393 163.271 694.841 163.271L634.638 163.271C634.165 163.271 633.771 163.01 633.674 162.547C631.696 153.146 611.057 55.229 609.523 55.3306C607.933 55.4358 620.62 124.595 620.969 126.495C620.98 126.554 620.976 126.565 620.976 126.626V162.271Z" fill="black"/>
<path d="M796.297 132.469C796.142 131.281 794.016 131.278 793.767 132.45C789.664 151.758 777.459 163.271 750.467 163.271C737.158 163.271 726.981 161.094 719.413 156.957C704.277 148.25 698.797 129.31 698.797 96.4384V68.7913C698.797 20.6809 729.068 0 784.653 0C840.237 0 864.768 19.8101 863.985 63.3489V64.0905C863.985 64.6428 863.537 65.0905 862.985 65.0905L787.48 65.0905C786.927 65.0905 786.48 64.6428 786.48 64.0905V63.7843C786.48 54.4235 785.958 53.5527 782.043 53.5527C780.738 53.5527 779.695 53.7704 778.912 54.4235C777.607 55.512 777.085 59.2128 777.085 68.5736V102.534C777.085 115.16 778.129 116.902 783.609 116.902C787.805 116.902 789.9 113.786 790.115 108.107C790.135 107.555 789.685 107.105 789.133 107.105H783.565C783.013 107.105 782.565 106.658 782.565 106.105V71.5329C782.565 70.9806 783.013 70.5329 783.565 70.5329L862.985 70.5329C863.537 70.5329 863.985 70.9806 863.985 71.5329V162.27C863.985 162.823 863.537 163.271 862.985 163.271H801.189C800.686 163.271 800.262 162.898 800.197 162.4L796.297 132.469Z" fill="black"/>
<path d="M966.268 119.333C966.268 118.781 965.821 118.333 965.268 118.333H964.972C964.42 118.333 963.972 118.781 963.972 119.333V164C963.972 164.552 963.524 165 962.972 165L897 165C896.448 165 896 164.552 896 164V6C896 5.44772 896.448 5 897 5L962.972 5C963.524 5 963.972 5.44772 963.972 6V50.4444C963.972 50.9967 964.42 51.4444 964.972 51.4444H965.268C965.821 51.4444 966.268 50.9967 966.268 50.4444V6C966.268 5.44772 966.716 5 967.268 5L1036.38 5C1036.93 5 1037.38 5.44772 1037.38 6V164C1037.38 164.552 1036.93 165 1036.38 165L967.268 165C966.716 165 966.268 164.552 966.268 164V119.333Z" fill="black"/>
<path d="M1075.51 153.72C1075.48 153.191 1075.04 152.778 1074.51 152.778H1067.5C1066.97 152.778 1066.53 153.191 1066.5 153.72L1065.9 164.058C1065.87 164.587 1065.43 165 1064.9 165H1039.94C1039.36 165 1038.9 164.497 1038.95 163.912L1052.9 5.91201C1052.95 5.39584 1053.38 5 1053.9 5L1087.27 5C1087.78 5 1088.22 5.39285 1088.26 5.90677L1103.06 163.907C1103.11 164.493 1102.65 165 1102.06 165H1077.11C1076.58 165 1076.14 164.587 1076.11 164.058L1075.51 153.72ZM1068.88 116.608C1068.84 117.182 1069.3 117.667 1069.88 117.667H1072.13C1072.71 117.667 1073.16 117.178 1073.13 116.601L1071.78 96.1111L1070.79 63.4445L1070.09 96.1111L1068.88 116.608Z" fill="black"/>
<path d="M1159.39 121.222C1159.09 121.222 1158.84 121.467 1158.84 121.769V164C1158.84 164.552 1158.4 165 1157.84 165L1105.15 165C1104.6 165 1104.15 164.552 1104.15 164V6C1104.15 5.44772 1104.6 5 1105.15 5L1169.24 5C1181.68 5 1191.94 6.77778 1200.41 9.66666C1217.23 16.1111 1224.21 30.1111 1224.21 55.4444C1224.21 65.2222 1222.56 72.7778 1219.15 78.1111C1212.58 88.5556 1201.92 92.1111 1186.33 93.2222C1202.05 93.2222 1211.63 95.4444 1217.1 101.889C1222.43 108.778 1224.21 120.778 1224.21 141.222V150.556C1224.21 156.539 1224.21 161.865 1224.21 164.004C1224.21 164.556 1223.77 165 1223.22 165C1211.57 165 1171.5 165 1164.74 165C1164.19 165 1163.77 164.552 1163.77 164V126.778C1163.77 122.111 1162.67 121.222 1159.39 121.222ZM1159.84 67.4445C1159.29 67.4445 1158.84 67.8922 1158.84 68.4445V81.3333C1158.84 81.8856 1159.29 82.3333 1159.84 82.3333H1162.54C1165.82 82.3333 1167.32 79.6667 1167.32 74.5556C1167.32 69.8889 1165.82 67.4445 1162.54 67.4445H1159.84Z" fill="black"/>
<path d="M1288.25 164C1288.25 164.552 1287.8 165 1287.25 165L1227.07 165C1226.51 165 1226.07 164.552 1226.07 164V6C1226.07 5.44772 1226.51 5 1227.07 5L1310.87 5C1311.38 5 1311.81 5.38602 1311.86 5.89469L1316.97 54.1111L1317.87 95L1319.23 53.8889L1325 5.8806C1325.06 5.37812 1325.49 5 1326 5L1408 5C1408.55 5 1409 5.44772 1409 6V164C1409 164.552 1408.55 165 1408 165L1347.59 165C1347.04 165 1346.59 164.552 1346.59 164V131.222L1355.77 49.2222L1335.88 164.171C1335.8 164.65 1335.38 165 1334.89 165L1299.5 165C1299.01 165 1298.59 164.646 1298.51 164.162L1279.59 49.2222L1288.25 131.444V164Z" fill="black"/>
<path d="M1466.8 168C1454.76 168 1444.52 166.011 1436.26 161.811C1419.37 153.411 1410.93 135.065 1410.93 101.909V70.0799C1410.93 53.502 1413.26 40.4607 1417.75 30.2929C1427.09 10.1784 1444.16 2 1467.34 2C1478.83 2 1488.72 4.2104 1497.34 8.63117C1514.23 17.9148 1523.75 36.9241 1523.75 70.0799V101.909C1523.75 117.824 1521.41 130.644 1517.1 140.37C1508.12 159.822 1491.05 168 1466.8 168ZM1467.34 114.951C1469.31 114.951 1469.85 113.403 1469.85 107.878V61.0173C1469.85 55.4914 1469.31 54.3862 1467.34 54.3862C1465.72 54.3862 1464.82 55.2703 1464.82 61.2384V108.099C1464.82 113.403 1465.72 114.951 1467.34 114.951Z" fill="black"/>
<path d="M1551.98 164C1551.98 164.552 1551.53 165 1550.98 165L1526.83 165C1526.28 165 1525.83 164.552 1525.83 164V6C1525.83 5.44772 1526.28 5 1526.83 5L1556.55 5C1557.07 5 1557.49 5.32136 1557.54 5.8314C1558.58 15.9031 1568.7 114.081 1569.37 113.222C1570.06 112.323 1563.29 37.3082 1563.21 36.3427C1563.2 36.3128 1563.21 36.3183 1563.21 36.2883V6C1563.21 5.44772 1563.65 5 1564.21 5L1587.67 5C1588.22 5 1588.67 5.44772 1588.67 6V164C1588.67 164.552 1588.22 165 1587.67 165L1559.18 165C1558.67 165 1558.24 164.675 1558.19 164.164C1557.18 154.161 1547.39 57.7628 1546.37 59.2222C1545.29 60.7496 1551.88 127.943 1551.98 128.988C1551.98 129.02 1551.98 129.016 1551.98 129.049V164Z" fill="black"/>
<path d="M1639.25 165C1638.69 165 1638.25 164.552 1638.25 164V114.322C1638.25 114.183 1638.22 114.045 1638.16 113.918L1590.77 6.40337C1590.48 5.74239 1590.96 5 1591.68 5L1663.26 5C1663.69 5 1664.07 5.27807 1664.21 5.68918L1673.17 33.0847C1673.2 33.1759 1673.21 33.2589 1673.22 33.3548C1673.28 35.6948 1674.24 68.2182 1674.81 68.1111C1675.38 68.0038 1676.62 35.5754 1676.7 33.343C1676.71 33.2572 1676.72 33.1806 1676.75 33.0984L1685.07 5.70937C1685.19 5.28804 1685.58 5 1686.02 5L1758.47 5C1759.19 5 1759.68 5.74239 1759.38 6.40337L1711.99 113.918C1711.93 114.045 1711.9 114.183 1711.9 114.322V164C1711.9 164.552 1711.46 165 1710.9 165L1639.25 165Z" fill="black"/>
</svg>
